<?xml version="1.0" encoding="UTF-8"?>
<svg version="1.1" xmlns="http://www.w3.org/2000/svg" width="982" height="256">
<path d="M0 0 C4.04867014 3.92318118 7.52985026 7.90030995 10.39453125 12.7578125 C8.21437358 17.97416242 3.98725085 20.36460133 -0.48046875 23.5703125 C-1.29644531 24.18068359 -2.11242187 24.79105469 -2.953125 25.41992188 C-4.13841797 26.2774707 -4.13841797 26.2774707 -5.34765625 27.15234375 C-6.06808105 27.67675049 -6.78850586 28.20115723 -7.53076172 28.74145508 C-9.60546875 29.7578125 -9.60546875 29.7578125 -11.78710938 29.52294922 C-14.1962126 28.50923688 -14.86076493 27.27612387 -16.23046875 25.0703125 C-19.99636998 19.72888116 -25.2755813 16.28764426 -31.4296875 14.11328125 C-42.09814764 12.37031918 -53.02376902 13.08454687 -62.29296875 18.8828125 C-70.69664184 25.39517169 -74.25440812 35.55909822 -75.60546875 45.7578125 C-76.4990221 61.04846342 -76.24045128 76.42044624 -65.9609375 88.7265625 C-59.25927762 95.38589611 -50.20844562 97.87948892 -40.91796875 98.1953125 C-35.47002932 97.94983848 -30.62700413 96.87912117 -25.60546875 94.7578125 C-24.82429688 94.4484375 -24.043125 94.1390625 -23.23828125 93.8203125 C-20.53652185 92.35886258 -19.26428783 91.37380917 -17.60546875 88.7578125 C-16.3505136 83.13810352 -16.60546875 77.50187518 -16.60546875 71.7578125 C-26.50546875 71.7578125 -36.40546875 71.7578125 -46.60546875 71.7578125 C-46.60546875 63.1778125 -46.60546875 54.5978125 -46.60546875 45.7578125 C-27.46546875 45.7578125 -8.32546875 45.7578125 11.39453125 45.7578125 C11.39453125 71.1678125 11.39453125 96.5778125 11.39453125 122.7578125 C3.80453125 122.7578125 -3.78546875 122.7578125 -11.60546875 122.7578125 C-14.60546875 113.7578125 -14.60546875 113.7578125 -14.60546875 110.7578125 C-15.07855469 111.20511719 -15.55164063 111.65242188 -16.0390625 112.11328125 C-27.42453969 122.52222628 -37.99777381 125.4771844 -53.25 125.06640625 C-67.21891623 124.32504778 -79.25350838 118.09169674 -88.765625 107.9765625 C-104.08898325 89.49743833 -107.3288458 67.01302083 -105.60546875 43.7578125 C-103.69660178 27.00556902 -96.28004728 11.01781754 -83.60546875 -0.2421875 C-60.13849443 -18.57576119 -23.04924124 -19.83547897 0 0 Z " fill="#0078FD" transform="translate(457.60546875,73.2421875)"/>
<path d="M0 0 C8.91 0 17.82 0 27 0 C27 46.53 27 93.06 27 141 C19.08 141 11.16 141 3 141 C2.34 139.02 1.68 137.04 1 135 C0.5153125 135.39832031 0.030625 135.79664063 -0.46875 136.20703125 C-9.63562639 143.45238932 -17.22973062 145.1575182 -29 144 C-39.82654034 141.55885651 -48.73302627 135.12532516 -55 126 C-57.01018955 122.10193402 -58.5790683 118.1462343 -60 114 C-60.2475 113.29488281 -60.495 112.58976562 -60.75 111.86328125 C-64.68483548 97.95473084 -62.71175715 80.6927766 -56.125 68.0625 C-50.65037676 58.85820642 -43.91984683 52.44993405 -33.66796875 48.8203125 C-29.5900968 47.90832836 -25.85124859 47.6165237 -21.6875 47.625 C-20.94419434 47.62516113 -20.20088867 47.62532227 -19.43505859 47.62548828 C-11.94673486 47.78030673 -6.21535348 49.85643101 0 54 C0 36.18 0 18.36 0 0 Z M-30 79 C-34.92956514 86.46096345 -35.62576876 94.03036868 -34.3125 102.75 C-32.70807432 110.29398832 -28.97301135 114.45531745 -23 119 C-18.81722123 121.09138938 -13.55360952 120.43616949 -9 120 C-5.38374057 118.69119942 -2.72646605 116.72646605 0 114 C0.24884725 111.33412955 0.37644167 108.77583915 0.40625 106.10546875 C0.42335022 104.92891472 0.42335022 104.92891472 0.4407959 103.72859192 C0.45970233 102.06675618 0.47276648 100.40484535 0.48046875 98.74291992 C0.49985228 96.20682781 0.56185728 93.67400015 0.625 91.13867188 C0.63806382 89.52345674 0.6485633 87.90821842 0.65625 86.29296875 C0.6809436 85.53759323 0.70563721 84.78221771 0.7310791 84.00395203 C0.70667796 81.10162851 0.59298518 78.73592681 -1.27246094 76.42080688 C-5.25042922 72.99789141 -9.21997397 71.3657929 -14.375 70.6875 C-20.92029625 71.46670193 -25.8318922 73.78986525 -30 79 Z " fill="#0078FD" transform="translate(761,54)"/>
<path d="M0 0 C-0.06063998 15.22996753 -0.13821406 30.45978445 -0.23571491 45.68955898 C-0.28059973 52.76169274 -0.32003103 59.83377696 -0.34643555 66.90600586 C-0.37194251 73.73366942 -0.41289628 80.56110262 -0.46318626 87.38862801 C-0.47984512 89.99082752 -0.49136548 92.59306526 -0.49761391 95.19531059 C-0.50726524 98.84585514 -0.53533872 102.49583525 -0.56762695 106.14624023 C-0.56619186 107.2172699 -0.56475677 108.28829956 -0.5632782 109.39178467 C-0.6881635 119.40442593 -2.70749275 126.67390863 -9.70703125 133.9921875 C-19.28689198 142.38068565 -31.61924025 144.21788712 -43.91015625 144.07421875 C-44.78675903 144.06886108 -45.66336182 144.06350342 -46.56652832 144.0579834 C-48.71106104 144.04410056 -50.85554361 144.02280627 -53 144 C-53.13996463 132.7068754 -53.24610532 121.41396229 -53.31087303 110.12014198 C-53.34198253 104.87405043 -53.38407564 99.62855887 -53.45263672 94.3828125 C-53.51856544 89.3058127 -53.55385859 84.22938433 -53.56926346 79.15198898 C-53.58021958 77.22976071 -53.60160783 75.30755826 -53.63438034 73.38557816 C-53.98673414 51.83408516 -48.40122078 33.19625503 -33.2421875 17.24609375 C-32.50226563 16.50488281 -31.76234375 15.76367188 -31 15 C-30.36320312 14.35160156 -29.72640625 13.70320313 -29.0703125 13.03515625 C-21.42750682 5.78876165 -10.68812341 0 0 0 Z " fill="#0079FD" transform="translate(148,67)"/>
<path d="M0 0 C8.91 0 17.82 0 27 0 C27.03738281 4.25003906 27.07476563 8.50007813 27.11328125 12.87890625 C27.15142378 16.28108505 27.19249628 19.68320059 27.2355423 23.08531952 C27.28008859 26.66924379 27.31954681 30.25305426 27.34643555 33.8371582 C27.37256487 37.29331807 27.4130335 40.7490471 27.46318626 44.20493889 C27.4878363 46.15618491 27.49787487 48.10759796 27.50764465 50.05897522 C27.61204614 56.39198381 27.70078067 61.49578701 31 67 C35.26890283 69.84593522 38.98874882 69.62355477 44 69 C48.36005213 67.4307048 51.61625289 64.9937997 54 61 C54.4704795 58.13659856 54.4704795 58.13659856 54.43237305 54.94628906 C54.45216721 53.72532532 54.47196136 52.50436157 54.49235535 51.24639893 C54.49874527 49.93274353 54.50513519 48.61908813 54.51171875 47.265625 C54.52856971 45.90369041 54.54672052 44.54177133 54.56611633 43.17987061 C54.61357789 39.60264941 54.6434117 36.02549112 54.66955566 32.44805908 C54.69938088 28.79467344 54.74590439 25.14150446 54.79101562 21.48828125 C54.87700481 14.32562842 54.94436916 7.16295977 55 0 C59.47915328 -0.02886338 63.95828291 -0.04675187 68.4375 -0.0625 C69.71689453 -0.07087891 70.99628906 -0.07925781 72.31445312 -0.08789062 C74.13686523 -0.09272461 74.13686523 -0.09272461 75.99609375 -0.09765625 C77.12200928 -0.10289307 78.2479248 -0.10812988 79.40795898 -0.11352539 C82 0 82 0 83 1 C83.09519368 3.7998972 83.12553944 6.57506174 83.11352539 9.37524414 C83.11367142 10.25321152 83.11381744 11.13117889 83.1139679 12.03575134 C83.11326844 14.95224435 83.10547455 17.86867433 83.09765625 20.78515625 C83.09579218 22.80154892 83.09436823 24.81794204 83.09336853 26.83433533 C83.08954244 32.15265138 83.07971139 37.4709403 83.06866455 42.78924561 C83.05845238 48.21170688 83.05387133 53.63417252 83.04882812 59.05664062 C83.0380892 69.70444094 83.02049167 80.35221398 83 91 C74.42 91 65.84 91 57 91 C56.34 88.03 55.68 85.06 55 82 C54.38125 82.70125 53.7625 83.4025 53.125 84.125 C46.15052734 91.11945682 38.55629708 94.12364513 28.875 94.3125 C21.21646089 94.3125 14.84520793 93.36364488 8.94140625 88.19921875 C2.00174422 80.76901928 -0.13163222 73.05588032 -0.11352539 63.0065918 C-0.11374443 61.98137169 -0.11374443 61.98137169 -0.1139679 60.93544006 C-0.11327462 58.68999999 -0.10550974 56.44464423 -0.09765625 54.19921875 C-0.09578999 52.63694809 -0.09436707 51.07467685 -0.09336853 49.5124054 C-0.08955972 45.41069916 -0.07974346 41.30902861 -0.06866455 37.20733643 C-0.0584152 33.01778649 -0.05386337 28.82823075 -0.04882812 24.63867188 C-0.03811967 16.42576309 -0.02053617 8.2128901 0 0 Z " fill="#0078FE" transform="translate(492,104)"/>
<path d="M0 0 C24.32487922 0.65477468 46.2955564 6.89518061 64.1484375 24.06640625 C65.90957645 25.96982062 67.47305171 27.90497861 69 30 C69.51949219 30.7115625 70.03898437 31.423125 70.57421875 32.15625 C78.16395822 43.626889 81.17174542 57.5450523 81.11352539 71.12646484 C81.11367142 72.02466949 81.11381744 72.92287415 81.1139679 73.84829712 C81.11327398 76.80253557 81.10550605 79.75671013 81.09765625 82.7109375 C81.09579022 84.76502447 81.09436719 86.81911189 81.09336853 88.87319946 C81.08955794 94.26870969 81.07974012 99.66419283 81.06866455 105.05969238 C81.05841906 110.56973911 81.05386419 116.07979023 81.04882812 121.58984375 C81.03811653 132.39324104 81.02105764 143.19661826 81 154 C77.37 154 73.74 154 70 154 C70 135.85 70 117.7 70 99 C67.03 99 64.06 99 61 99 C61 102.3 61 105.6 61 109 C57.37 109 53.74 109 50 109 C50 101.74 50 94.48 50 87 C47.03 87 44.06 87 41 87 C41 98.88 41 110.76 41 123 C37.37 123 33.74 123 30 123 C29.99120064 121.63722427 29.99120064 121.63722427 29.98222351 120.24691772 C29.92398978 111.62745098 29.85174117 103.00823496 29.76428509 94.38901329 C29.71981764 89.95923098 29.6805116 85.52953566 29.65356445 81.09960938 C29.62729302 76.81353301 29.5867284 72.52779578 29.53681374 68.24193192 C29.52030436 66.61796965 29.50869207 64.99394895 29.50238609 63.36991501 C29.44669321 50.32871505 28.61896196 37.51860949 22.375 25.75 C22.02945068 25.08307129 21.68390137 24.41614258 21.32788086 23.72900391 C16.54631417 14.87298099 10.34123682 8.26561618 1.65234375 3.15625 C1.10707031 2.7746875 0.56179687 2.393125 0 2 C0 1.34 0 0.68 0 0 Z " fill="#0079FD" transform="translate(177,31)"/>
<path d="M0 0 C0.92627197 0.00161133 1.85254395 0.00322266 2.80688477 0.00488281 C13.99049146 0.20530939 22.10077724 3.51698021 30.5625 10.875 C32.6875 13.375 32.6875 13.375 32.6875 17.375 C30.421875 19.84765625 30.421875 19.84765625 27.4375 22.4375 C26.46296875 23.29472656 25.4884375 24.15195313 24.484375 25.03515625 C22.26254586 26.89392113 20.03030854 28.67367475 17.6875 30.375 C14.23266288 28.85487167 11.37254536 26.74885365 8.37109375 24.49609375 C5.23212908 22.4058783 2.41278794 22.21503976 -1.25 22.1875 C-2.53197266 22.16623047 -2.53197266 22.16623047 -3.83984375 22.14453125 C-6.52474706 22.3947829 -8.10575901 22.82579809 -10.3125 24.375 C-11.13120185 27.93706661 -11.13120185 27.93706661 -11.3125 31.375 C-5.38394316 33.57076179 0.51501724 35.01845328 6.6875 36.3125 C16.86247912 38.50631164 25.70207901 41.14387188 32.6875 49.375 C37.65276625 57.57118599 37.85475677 66.34936029 35.6875 75.5 C33.0702095 83.15709639 27.777201 88.57647883 20.6875 92.3125 C13.61377753 95.64623069 6.6628132 96.74519527 -1.0625 96.6875 C-1.8474585 96.68258545 -2.63241699 96.6776709 -3.44116211 96.67260742 C-16.62621196 96.4092036 -27.62099842 92.37425147 -37.3125 83.375 C-39.25 81.3125 -39.25 81.3125 -40.3125 79.375 C-40.13842994 76.22834891 -39.26293073 75.32772484 -36.94921875 73.12109375 C-35.97597656 72.35925781 -35.00273438 71.59742188 -34 70.8125 C-33.03449219 70.04808594 -32.06898438 69.28367187 -31.07421875 68.49609375 C-28.83132766 66.77347726 -26.58201572 65.06231216 -24.3125 63.375 C-21.42572335 64.68375558 -19.39184781 66.11281805 -17.125 68.3125 C-12.24081348 72.59008519 -7.08896592 74.13564949 -0.6875 74.6875 C3.03948194 74.34240908 6.13716111 73.53429433 9.6875 72.375 C10.16944469 67.49784036 10.16944469 67.49784036 8.10546875 63.265625 C5.06593644 60.88899554 2.50017393 60.25646795 -1.25 59.375 C-2.59545755 59.04069012 -3.94050372 58.70472075 -5.28515625 58.3671875 C-6.29666748 58.1192041 -6.29666748 58.1192041 -7.32861328 57.86621094 C-28.11720165 52.71895032 -28.11720165 52.71895032 -34.3125 43.25 C-38.16729292 36.58442057 -38.41144435 28.50629135 -36.81640625 21.05859375 C-36.12181656 19.05330939 -35.30799676 17.24815921 -34.3125 15.375 C-33.85423828 14.46814453 -33.85423828 14.46814453 -33.38671875 13.54296875 C-29.29039182 6.70582671 -21.97793404 3.50549702 -14.6015625 1.23046875 C-9.75197025 0.10709743 -4.96162666 -0.00897463 0 0 Z " fill="#0079FD" transform="translate(845.3125,101.625)"/>
<path d="M0 0 C8.91 0 17.82 0 27 0 C27.02505615 3.3613916 27.0501123 6.7227832 27.07592773 10.18603516 C27.15939136 21.29008829 27.24807867 32.39409527 27.33933926 43.49808693 C27.39457503 50.23064095 27.44804091 56.96320027 27.49731445 63.69580078 C27.5448679 70.1926893 27.5973877 76.68952667 27.65294075 83.18635178 C27.67332637 85.66544675 27.69204566 88.144556 27.70907402 90.6236763 C27.73320194 94.09503591 27.76324517 97.56629757 27.79467773 101.03759766 C27.80331093 102.57616425 27.80331093 102.57616425 27.81211853 104.14581299 C27.86077494 108.87104104 28.02217955 113.3537373 29 118 C34.05640946 118.7713167 36.85191212 119.02961758 42 118 C42 125.92 42 133.84 42 142 C33.00670091 145.59731963 22.40420548 145.25607088 13.44140625 141.44921875 C6.30614044 137.21372497 2.8866955 131.65631273 0.63254356 123.88156509 C-0.47152038 118.8519793 -0.39107569 113.88642038 -0.34057617 108.75732422 C-0.34101425 107.57568192 -0.34145233 106.39403961 -0.34190369 105.17658997 C-0.33982723 101.30244962 -0.31654958 97.4287515 -0.29296875 93.5546875 C-0.28569269 90.85613243 -0.28295282 88.15757779 -0.28010559 85.45901489 C-0.27081887 79.10210669 -0.24625138 72.74535513 -0.21605712 66.38851559 C-0.18240737 59.14539654 -0.16600065 51.9022696 -0.15097082 44.65909171 C-0.11969831 29.77262647 -0.0647291 14.88636442 0 0 Z " fill="#0078FD" transform="translate(648,54)"/>
<path d="M0 0 C3.49872632 2.84432537 6.78172906 5.84329599 10 9 C10.56589844 9.54140625 11.13179688 10.0828125 11.71484375 10.640625 C15.24838052 14.35224453 17.59400177 18.6602215 19.9375 23.1875 C20.25678467 23.79424561 20.57606934 24.40099121 20.9050293 25.02612305 C22.62665044 28.51321294 23.17909109 30.3188986 22 34 C21.39526855 33.823479 20.79053711 33.64695801 20.16748047 33.46508789 C17.40433503 32.66069144 14.63969453 31.86155523 11.875 31.0625 C10.92367187 30.78470703 9.97234375 30.50691406 8.9921875 30.22070312 C8.0640625 29.95322266 7.1359375 29.68574219 6.1796875 29.41015625 C5.33132324 29.16402588 4.48295898 28.91789551 3.60888672 28.66430664 C-15.22573388 23.86840521 -36.68569961 25.47706727 -53.48046875 35.38671875 C-67.77512582 44.53973173 -75.88830678 57.33700948 -82 73 C-82.66 73 -83.32 73 -84 73 C-84.86104323 52.5900865 -80.27387921 34.68167378 -67.04296875 18.625 C-51.77191306 2.30565292 -20.35195891 -14.80142466 0 0 Z " fill="#0079FD" transform="translate(179,37)"/>
<path d="M0 0 C1.12591553 0.00523682 2.25183105 0.01047363 3.41186523 0.01586914 C4.62680664 0.0190918 5.84174805 0.02231445 7.09350586 0.02563477 C8.37290039 0.03401367 9.65229492 0.04239258 10.97045898 0.05102539 C12.2537207 0.05553711 13.53698242 0.06004883 14.85913086 0.06469727 C18.04211921 0.07652994 21.22501661 0.09301471 24.40795898 0.11352539 C24.43108101 11.96117712 24.44887335 23.80882353 24.45977116 35.65649319 C24.46500029 41.15723401 24.47209849 46.65795944 24.48339844 52.15869141 C24.49422623 57.46249099 24.50023559 62.76627574 24.50283623 68.07008553 C24.50469067 70.09838151 24.50831165 72.12667665 24.51368904 74.15496635 C24.52089804 76.98549053 24.52194999 79.81595257 24.52148438 82.64648438 C24.52507965 83.4938063 24.52867493 84.34112823 24.53237915 85.21412659 C24.52201115 90.99947323 24.52201115 90.99947323 23.40795898 92.11352539 C21.49337617 92.21324325 19.57513581 92.24433128 17.65795898 92.24633789 C16.49264648 92.24762695 15.32733398 92.24891602 14.12670898 92.25024414 C12.89952148 92.24637695 11.67233398 92.24250977 10.40795898 92.23852539 C8.56717773 92.24432617 8.56717773 92.24432617 6.68920898 92.25024414 C5.52389648 92.24895508 4.35858398 92.24766602 3.15795898 92.24633789 C2.08030273 92.24520996 1.00264648 92.24408203 -0.10766602 92.24291992 C-2.59204102 92.11352539 -2.59204102 92.11352539 -3.59204102 91.11352539 C-3.69255977 88.31900268 -3.72819995 85.54916184 -3.72143555 82.75415039 C-3.72318787 81.87778931 -3.72494019 81.00142822 -3.72674561 80.09851074 C-3.73116534 77.18682912 -3.72822571 74.27520769 -3.72485352 71.36352539 C-3.72552652 69.34952788 -3.72649652 67.33553044 -3.72775269 65.3215332 C-3.72922982 61.09463734 -3.72707459 56.86776256 -3.72241211 52.64086914 C-3.71671482 47.20972007 -3.71999374 41.7786204 -3.72598457 36.34747314 C-3.72958976 32.18692652 -3.7284518 28.0263917 -3.72585678 23.86584473 C-3.72518739 21.86267084 -3.72601634 19.8594959 -3.72833633 17.85632324 C-3.73086216 15.06181987 -3.72702326 12.26739768 -3.72143555 9.47290039 C-3.72345978 8.63650024 -3.72548401 7.8001001 -3.72756958 6.93835449 C-3.70233502 0.1621537 -3.70233502 0.1621537 0 0 Z " fill="#0078FD" transform="translate(600.592041015625,103.886474609375)"/>
<path d="M0 0 C3.8003789 5.19385116 3.66374922 10.81422605 3 17 C1.28158838 22.25070216 -1.23415251 24.31921079 -6 27 C-11.36450899 28.78816966 -16.10384524 28.68834152 -21.25 26.4375 C-25.34841198 24.12205859 -27.63380706 21.52819923 -29 17 C-29.82044121 11.04944367 -29.51604672 6.03966696 -26 1 C-18.71291589 -6.70588205 -8.01556625 -7.06133217 0 0 Z " fill="#0078FD" transform="translate(624,63)"/>
<path d="M0 0 C3.63 0 7.26 0 11 0 C11 3.63 11 7.26 11 11 C7.7 11 4.4 11 1 11 C1 14.3 1 17.6 1 21 C-2.63 21 -6.26 21 -10 21 C-10 17.37 -10 13.74 -10 10 C-6.7 10 -3.4 10 0 10 C0 6.7 0 3.4 0 0 Z " fill="#0279FD" transform="translate(227,181)"/>
<path d="M0 0 C3.63 0 7.26 0 11 0 C11.09765625 8.49609375 11.09765625 8.49609375 11 11 C10 12 10 12 7.96875 12.1328125 C7.1540625 12.13023437 6.339375 12.12765625 5.5 12.125 C4.6853125 12.12757813 3.870625 12.13015625 3.03125 12.1328125 C1 12 1 12 0 11 C-0.14310287 7.3308423 -0.04221662 3.67284559 0 0 Z " fill="#037AFD" transform="translate(207,176)"/>
<path d="M0 0 C0 3.63 0 7.26 0 11 C-3.63 11 -7.26 11 -11 11 C-11 7.37 -11 3.74 -11 0 C-3.375 -1.125 -3.375 -1.125 0 0 Z " fill="#0079FE" transform="translate(228,164)"/>
<path d="M0 0 C3.63 0 7.26 0 11 0 C11 3.63 11 7.26 11 11 C7.37 11 3.74 11 0 11 C0 7.37 0 3.74 0 0 Z " fill="#0079FE" transform="translate(247,201)"/>
<path d="M0 0 C3.63 0 7.26 0 11 0 C11 3.63 11 7.26 11 11 C7.37 11 3.74 11 0 11 C0 7.37 0 3.74 0 0 Z " fill="#037AFD" transform="translate(227,149)"/>
</svg>
